<?xml version="1.0" standalone="no"?><!DOCTYPE svg PUBLIC "-//W3C//DTD SVG 1.1//EN" "http://www.w3.org/Graphics/SVG/1.1/DTD/svg11.dtd"><svg t="1610107373617" class="icon" viewBox="0 0 1024 1024" version="1.1" xmlns="http://www.w3.org/2000/svg" p-id="46818" xmlns:xlink="http://www.w3.org/1999/xlink" width="200" height="200"><defs><style type="text/css"></style></defs><path d="M331.2 240c25.6 25.6 25.6 65.6 0 91.2s-65.6 25.6-91.2 0l-44.8-44.8c-25.6-25.6-25.6-65.6 0-91.2s65.6-25.6 91.2 0l44.8 44.8z" fill="#737987" opacity=".1" p-id="46819"></path><path d="M192 448c35.2 0 64 28.8 64 64s-28.8 64-64 64H128c-35.2 0-64-28.8-64-64s28.8-64 64-64h64z" fill="#737987" opacity=".15" p-id="46820"></path><path d="M240 692.8c25.6-25.6 65.6-25.6 91.2 0 25.6 25.6 25.6 65.6 0 91.2l-44.8 44.8c-25.6 25.6-65.6 25.6-91.2 0s-25.6-65.6 0-91.2l44.8-44.8z" fill="#737987" opacity=".3" p-id="46821"></path><path d="M448 832c0-35.2 28.8-64 64-64s64 28.8 64 64v64c0 35.2-28.8 64-64 64s-64-28.8-64-64v-64z" fill="#737987" opacity=".45" p-id="46822"></path><path d="M828.8 737.6c25.6 25.6 25.6 65.6 0 91.2s-65.6 25.6-91.2 0L692.8 784c-25.6-25.6-25.6-65.6 0-91.2s65.6-25.6 91.2 0l44.8 44.8z" fill="#737987" opacity=".6" p-id="46823"></path><path d="M896 448c35.2 0 64 28.8 64 64s-28.8 64-64 64h-64c-35.2 0-64-28.8-64-64s28.8-64 64-64h64z" fill="#737987" opacity=".75" p-id="46824"></path><path d="M737.6 195.2c25.6-25.6 65.6-25.6 91.2 0s25.6 65.6 0 91.2L784 331.2c-25.6 25.6-65.6 25.6-91.2 0-25.6-25.6-25.6-65.6 0-91.2l44.8-44.8z" fill="#737987" opacity=".9" p-id="46825"></path><path d="M448 128c0-35.2 28.8-64 64-64s64 28.8 64 64v64c0 35.2-28.8 64-64 64s-64-28.8-64-64V128z" fill="#737987" p-id="46826"></path></svg>