<?xml version="1.0" standalone="no"?>
<!DOCTYPE svg PUBLIC "-//W3C//DTD SVG 1.1//EN" "http://www.w3.org/Graphics/SVG/1.1/DTD/svg11.dtd" >
<svg xmlns="http://www.w3.org/2000/svg">
<metadata>Generated by IcoMoon</metadata>
<defs>
<font id="dianyingim" horiz-adv-x="1024">
<font-face units-per-em="1024" ascent="960" descent="-64" />
<missing-glyph horiz-adv-x="1024" />
<glyph unicode="&#x20;" horiz-adv-x="512" d="" />
<glyph unicode="&#xe900;" glyph-name="happy" d="M135.227 957.148c8.999 3.848 19.507 3.735 28.449-0.245 56.389-25.449 112.702-51.144 169.11-76.575 8.395-3.434 15.847-9.659 19.733-17.979 8.433-16.092 2.151-37.731-13.47-46.937-53.163-32.939-106.269-65.973-159.45-98.854-16.677-10.471-41.014-3.887-50.106 13.583-8.923 15.752-4.018 37.995 11.546 47.654 33.977 21.337 68.237 42.183 102.156 63.595-36.089 16.262-72.122 32.618-108.155 48.975-11.376 4.659-19.922 15.526-21.564 27.732-2.924 15.998 6.697 33.033 21.751 39.052v0zM863.262 950.564c9.81 4.207 19.582 10.357 30.713 9.32 15.262-0.735 29.298-12.055 32.844-26.997 4.433-16.13-3.848-34.769-19.167-41.73-36.637-16.696-73.311-33.279-109.986-49.842 33.958-21.016 67.896-42.070 101.797-63.161 13.375-8.282 19.771-25.921 14.979-40.881-5.622-21.507-33.127-32.637-52.2-21.242-53.333 32.958-106.571 66.067-159.846 99.119-10.867 6.264-17.827 18.639-17.526 31.165-0.377 13.942 8.357 27.581 21.242 32.958 52.352 23.846 104.779 47.504 157.149 71.293v0zM467.649 499.55c174.599 4.754 349.689-19.676 517.101-69.179 7.169-2.377 15.998-3.207 20.639-9.98 5.32-7.395 3.093-16.998 3.226-25.487-2.151-74.48-22.318-148.377-58.464-213.556-34.675-62.897-83.876-117.701-142.641-159.017-65.236-46.069-142.339-75.217-221.782-83.48-25.657-2.886-51.484-2.924-77.253-2.773-34.995-0.491-70.142 1.245-104.609 7.641-72.801 13.074-142.339 43.73-201.181 88.535-55.691 42.108-101.836 96.685-134.208 158.545-35.202 67.274-53.993 143.207-53.427 219.178-0.359 7.697 5.244 14.885 12.564 16.941 142.547 43.73 290.961 68.614 440.036 72.631v0zM479.29 265.185c-43.768-3.717-87.215-14.998-126.097-35.674-30.090-16.148-57.653-38.165-76.65-66.821-14.375-21.657-23.186-47.202-23.808-73.255-0.226-5.64 2.151-11.546 6.621-15.093 68.481-46.503 151.244-71.198 233.969-70.839 24.676 0.207 49.39-0.679 73.99 1.566 69.387 5.716 137.19 29.336 195.163 67.859 4.886 3.207 8.282 8.716 8.509 14.602-0.226 22.356-6.377 44.522-17.168 64.067-16.79 30.506-43.504 54.615-73.236 72.198-60.256 35.297-132.285 47.069-201.294 41.39z" />
<glyph unicode="&#xe901;" glyph-name="arrow-bottom-o" d="M512.203 155.429c-0.126-0.001-0.274-0.001-0.423-0.001-20.093 0-38.294 8.102-51.513 21.217l-438.852 438.852c-13.29 13.29-21.511 31.651-21.511 51.931 0 40.561 32.881 73.442 73.442 73.442 20.28 0 38.641-8.22 51.931-21.511v0l386.926-387.657 386.926 386.926c12.707 10.931 29.364 17.588 47.576 17.588 40.396 0 73.143-32.747 73.143-73.143 0-18.212-6.656-34.87-17.669-47.673l0.081 0.096-438.857-438.857c-13.144-13.040-31.219-21.125-51.183-21.211h-0.017z" />
<glyph unicode="&#xe902;" glyph-name="watch-history" horiz-adv-x="992" d="M264.425 232.438c0.481-5.224-0.095-10.497-1.7-15.553l-39.036-120.431c-3.493-10.787-11.461-19.904-22.149-25.346s-23.218-6.76-34.829-3.664l-129.696 34.443c-24.177 6.393-37.902 29.773-30.655 52.223s32.72 35.466 56.896 29.073l86.058-23.562 25.908 79.854c6.344 19.366 26.535 32.079 48.226 30.369s38.846-17.369 40.976-37.404zM990.093 490.702c13.563-154.32-45.763-306.113-160.374-410.337s-271.343-148.905-423.682-120.785c-31.11 5.685-51.724 35.515-46.039 66.626s35.515 51.724 66.626 46.039c160.985-29.796 323.033 46.45 402.703 189.478s59.194 320.943-50.881 442.134c-110.076 121.191-285.208 158.634-435.217 93.049s-241.444-219.574-227.224-382.676c5.12-61.444 25.227-120.694 58.562-172.564 14.053-17.005 17.080-40.574 7.78-60.579s-29.272-32.882-51.331-33.096c-22.059-0.215-42.279 12.27-51.968 32.088-111.747 173.427-104.454 397.923 18.314 563.732s335.363 238.294 533.852 182.018c198.489-56.276 341.404-229.556 358.88-435.127zM664.204 503.411l-222.27 127.481c-37.167 21.457-83.456-5.614-83.456-48.527v-255.067c0-43.019 46.289-69.932 83.456-48.632l222.27 127.481c37.445 21.509 37.445 75.808 0 97.316v-0.050z" />
<glyph unicode="&#xe903;" glyph-name="search" d="M790.153 281.23c49.846 72 76.309 158.152 76.309 245.538 0 239.385-193.847 433.232-433.232 433.232-239.381 0-433.229-193.847-433.229-433.232s193.847-433.229 433.229-433.229c87.386 0 173.538 26.462 245.538 76.306l211.079-210.462c14.153-14.767 34.462-23.383 55.382-23.383 43.080 0 78.77 35.691 78.77 78.767 0 20.924-8.614 41.232-22.771 55.385l-211.076 211.077zM432.353 186.31c-188.19 0-341.333 153.142-341.333 341.333s153.142 341.333 341.333 341.333 341.334-153.141 341.334-341.331-153.142-341.334-341.334-341.334z" />
<glyph unicode="&#xe904;" glyph-name="arrow-bottom" d="M433.065 168.864l-400.375 400.375c-20.198 20.204-32.69 48.111-32.69 78.936 0 61.654 49.973 111.636 111.624 111.65h800.751c61.652-0.014 111.625-49.996 111.625-111.65 0-30.825-12.492-58.732-32.69-78.937l-400.374-400.374c-20.204-20.198-48.111-32.69-78.936-32.69s-58.733 12.492-78.937 32.69l0.001-0.001z" />
<glyph unicode="&#xe905;" glyph-name="play" d="M877.041 583.531l-584.475 355.511c-97.73 59.838-219.454-15.654-219.454-135.33v-711.319c0-119.968 121.722-195.020 219.454-135.622l584.475 355.511c98.462 59.982 98.462 211.408 0 271.39z" />
<glyph unicode="&#xe906;" glyph-name="cate-zy" horiz-adv-x="1077" d="M897.725 14.309l-37.996 296.098 205.231 213.693 1.994 3.719c17.516 33.253 6.198 73.512-24.792 94.424l-305.421 57.236-146.701 259.611c-13.704 12.962-32.248 20.93-52.653 20.93-19.534 0-37.363-7.303-50.904-19.328l0.079 0.069-147.672-261.228-299.277-56.051c-23.669-12.417-39.538-36.82-39.538-64.929 0-10.965 2.415-21.367 6.742-30.701l-0.188 0.452 209.327-217.95-0.269-1.563c96.31 59.284 231.208 113.88 417.415 137.539-205.069-95.070-344.28-204.099-438.811-304.505l-16.546-129.078c8.154-33.531 37.923-58.037 73.415-58.037 3.149 0 6.253 0.193 9.301 0.568l-0.365-0.037 277.72 127.030 276.588-126.545c2.899-0.395 6.248-0.62 9.651-0.62 35.894 0 65.933 25.063 73.573 58.644l0.097 0.506z" />
<glyph unicode="&#xe907;" glyph-name="clear" d="M0-63.999h192s64 0 128 192v-192h128s128 0 128 192v-192h128s128 0 128 192v-192h128s64 64 64 447.999h-895.998s-64-447.999-128-447.999zM1023.997 576c0 38.4-31.999 64-64 64h-256v256c0 31.999-25.6 64-64 64h-128c-38.4 0-64-31.999-64-64v-256h-256c-31.999 0-64-25.6-64-64v-128h895.998v128z" />
<glyph unicode="&#xe908;" glyph-name="cate-dm" d="M757.909 440.895c0.071 1.317 0.112 2.859 0.112 4.41 0 11.071-2.053 21.664-5.799 31.417l0.203-0.6h115.339c0.318-7.91 0.498-17.195 0.498-26.523 0-12.262-0.312-24.452-0.93-36.561l0.069 1.698h-114.523c-11.261-29.522-39.3-50.133-72.165-50.234h-0.013c-42.618 0-77.209 35.001-77.209 78.117 0 43.162 34.593 78.117 77.209 78.117 42.71-0.24 77.239-34.918 77.239-77.662 0-0.766-0.011-1.529-0.033-2.289l0.002 0.112zM155.15 414.736c13.963-235.709 168.383-236.797 356.85-236.797 197.672 0 357.892-1.178 357.892 272.976 0 271.797-160.267 272.93-357.892 272.93-192.774 0-349.958-1.088-357.576-253.299h112.164c11.27 29.49 39.283 50.075 72.117 50.188h0.014c42.618 0 77.254-34.955 77.254-78.117 0-43.116-34.593-78.117-77.254-78.117-32.915 0-61.024 20.856-72.132 50.234h-111.439zM697.249-103.879c0-65.285-85.687-54.859-187.515-55.357-101.873-0.544-187.561-9.929-187.561 55.357 0 61.069 85.687 49.418 187.561 48.33 101.873 1.042 187.515 11.787 187.515-48.33zM511.909 928c406.448 0.046 498.801-277.146 498.801-462.622 0-188.739-92.352-462.441-496.308-462.441-401.824-0.090-501.113 273.656-501.113 462.577 0 189.963 99.288 462.486 498.62 462.486z" />
<glyph unicode="&#xe909;" glyph-name="cate-ds" d="M719.828 708.595l74.612 129.099c12.734 21.546 35.844 35.769 62.275 35.769 39.817 0 72.097-32.278 72.097-72.097 0-13.125-3.507-25.43-9.636-36.031l0.185 0.347-41.356-71.628c82.892-19.017 144.010-91.522 145.384-178.534l0.002-0.15c0.387-12.052 0.608-26.224 0.608-40.447 0-82.128-7.357-162.538-21.446-240.607l1.226 8.189c-9.135-44.221-20.457-82.393-34.574-119.181l1.745 5.174c-43.685-113.455-151.806-192.498-278.389-192.498-0.006 0-0.013 0-0.020 0h-358.135c-0.009 0-0.019 0-0.029 0-133.294 0-246.143 87.533-284.2 208.252l-0.573 2.11c-8.392 26.108-16.95 59.944-23.709 94.425l-1.019 6.236c-15.818 74.793-24.875 160.732-24.875 248.785 0 6.743 0.053 13.474 0.159 20.192l-0.013-1.014c1.474 84.222 58.775 154.663 136.408 175.992l1.304 0.305-43.062 74.441c-5.943 10.253-9.451 22.559-9.451 35.684 0 39.817 32.278 72.097 72.097 72.097 26.432 0 49.542-14.224 62.092-35.435l0.183-0.334 75.465-130.379c66.527 4.695 144.163 7.37 222.424 7.37 71.143 0 141.77-2.211 211.815-6.568l-9.592 0.477zM486.613 511.151c-11.577 7.799-25.839 12.449-41.186 12.449-41.020 0-74.282-33.216-74.356-74.22v-238.040c0-0.048 0-0.104 0-0.159 0-28.107 15.712-52.544 38.833-65.008l0.392-0.193c10.175-5.546 22.285-8.807 35.157-8.807 15.33 0 29.581 4.627 41.43 12.559l-0.27-0.17 179.495 119.038c20.21 13.421 33.352 36.086 33.352 61.821s-13.141 48.399-33.079 61.651l-0.272 0.17-179.495 118.995z" />
<glyph unicode="&#xe90a;" glyph-name="cate-dy" d="M778.975 559.541c-61.454 0-111.284-50.089-111.284-111.542 0-61.705 49.83-111.541 111.284-111.541 61.447 0 111.284 49.836 111.284 111.541 0 61.454-49.836 111.542-111.284 111.542zM511.743 292.309c-61.454 0-111.284-49.83-111.284-111.284s49.83-111.284 111.284-111.284c61.447 0 111.284 49.83 111.284 111.284s-49.836 111.284-111.284 111.284zM467.331 447.999c0-24.53 19.881-44.153 44.412-44.153 24.789 0 44.666 19.622 44.666 44.153 0 24.272-19.881 44.154-44.666 44.154-24.53 0-44.412-19.881-44.412-44.154zM511.743 826c-61.454 0-111.284-49.577-111.284-111.025 0-61.454 49.83-111.284 111.284-111.284 61.447 0 111.284 49.83 111.284 111.284-0.001 61.447-49.836 111.025-111.284 111.025zM244.51 559.541c-61.454 0-111.283-50.089-111.283-111.542 0-61.705 49.829-111.541 111.283-111.541s111.284 49.836 111.284 111.541c0 61.454-49.83 111.542-111.284 111.542zM799.89 24.561h117.735c21.431 0 38.989-19.623 38.989-44.154 0-24.525-17.557-44.407-38.989-44.407h-389.616c-1.55 0-3.358 0.259-4.908 0.517-3.611 0-7.227-0.517-11.101-0.517-282.723 0-512 229.277-512 512s229.277 512 512 512 512-229.276 512-512c0.001-176.089-88.818-331.264-224.111-423.439z" />
<glyph unicode="&#xe90b;" glyph-name="close-o" d="M994.644 99.927c-0.673 1.346-1.346 2.019-2.692 3.365l-344.535 344.535 344.535 344.535c0.673 1.346 2.019 2.019 2.692 3.365l1.346 1.346c37.683 37.683 37.011 97.573 0 135.257-1.346 1.346-2.692 2.019-4.038 3.365-2.019 2.019-3.365 4.038-5.383 5.383l-0.673-0.673c-37.683 28.263-90.844 25.571-125.163-8.075l-348.572-348.572-344.535 343.862c-1.346 0.673-2.019 2.019-3.365 2.692l-1.346 1.346c-37.011 37.011-97.573 37.011-135.257 0-1.346-1.346-2.019-2.692-3.365-4.038-2.019-2.019-4.038-3.365-5.383-5.383l0.673-0.673c-28.263-37.683-25.571-90.844 8.075-125.163l348.572-348.572-348.572-348.572c-34.319-34.319-36.338-87.479-8.075-125.163l-0.673-0.673c1.346-2.019 3.365-3.365 5.383-5.383 1.346-1.346 2.019-2.692 3.365-4.038 37.683-37.011 97.573-37.011 135.257 0l1.346 1.346c1.346 0.673 2.019 1.346 3.365 2.692l344.535 344.535 348.572-348.572c34.319-34.319 87.479-36.338 125.163-8.075l0.673-0.673c2.019 1.346 3.365 3.365 5.383 5.383 1.346 1.346 2.692 2.019 4.038 3.365 37.011 37.683 37.011 97.573 0 135.257l-1.346 0.673z" />
<glyph unicode="&#xe90c;" glyph-name="all" d="M128 192c70.692 0 128-57.308 128-128s-57.308-128-128-128v0c-70.692 0-128 57.308-128 128s57.308 128 128 128v0zM512 192c70.692 0 128-57.308 128-128s-57.308-128-128-128v0c-70.692 0-128 57.308-128 128s57.308 128 128 128v0zM896 192c70.692 0 128-57.308 128-128s-57.308-128-128-128v0c-70.692 0-128 57.308-128 128s57.308 128 128 128v0zM128 576c70.692 0 128-57.308 128-128s-57.308-128-128-128v0c-70.692 0-128 57.308-128 128s57.308 128 128 128v0zM512 576c70.692 0 128-57.308 128-128s-57.308-128-128-128v0c-70.692 0-128 57.308-128 128s57.308 128 128 128v0zM896 576c70.692 0 128-57.308 128-128s-57.308-128-128-128v0c-70.692 0-128 57.308-128 128s57.308 128 128 128v0zM128 960c70.692 0 128-57.308 128-128s-57.308-128-128-128v0c-70.692 0-128 57.308-128 128s57.308 128 128 128v0zM896 960c70.692 0 128-57.308 128-128s-57.308-128-128-128v0c-70.692 0-128 57.308-128 128s57.308 128 128 128v0zM512 960c70.692 0 128-57.308 128-128s-57.308-128-128-128v0c-70.692 0-128 57.308-128 128s57.308 128 128 128v0z" />
<glyph unicode="&#xe90d;" glyph-name="arrow-right" d="M703.906 393.732l-275.258-275.258c-13.889-13.887-33.075-22.475-54.268-22.475-42.388 0-76.751 34.357-76.76 76.741v550.515c0.009 42.387 34.371 76.741 76.76 76.741 21.191 0 40.377-8.587 54.268-22.475l275.258-275.258c13.887-13.889 22.475-33.075 22.475-54.268s-8.587-40.379-22.475-54.268v0z" />
<glyph unicode="&#xe90e;" glyph-name="sort" d="M924.464 243.195c0-11.819-4.452-23.244-12.449-31.912l-239.533-260.097c-8.631-9.35-20.949-15.186-34.629-15.186-26.001 0-47.079 21.078-47.079 47.079 0 0.006 0 0.012 0 0.019v244.377c0 0.044 0 0.097 0 0.15 0 2.488 0.143 4.941 0.422 7.355l-0.028-0.294 0.040 627.079c0 32.518 26.361 58.878 58.878 58.878s58.878-26.361 58.878-58.878v0-571.489h168.422c26.002 0 47.118-21.077 47.118-47.079zM99.496 652.844c0 11.819 4.452 23.205 12.449 31.912l239.533 260.058c8.631 9.35 20.949 15.186 34.629 15.186 26.001 0 47.079-21.078 47.079-47.079 0-0.006 0-0.012 0-0.019v-244.377c0-2.443-0.157-4.846-0.394-7.21l-0.040-627.079c0-32.518-26.361-58.878-58.878-58.878s-58.878 26.361-58.878 58.878v0 571.489h-168.382c-26.002 0-47.118 21.077-47.118 47.118z" />
<glyph unicode="&#xe90f;" glyph-name="close" d="M512 959.999c93.497-0.231 186.879-6.559 279.551-18.944 111.65-13.904 199.599-101.853 213.504-213.504 12.385-92.673 18.714-186.055 18.944-279.551-0.231-93.497-6.559-186.879-18.944-279.551-13.904-111.65-101.853-199.599-213.504-213.504-92.673-12.385-186.055-18.714-279.551-18.944-93.497 0.231-186.879 6.559-279.551 18.944-111.65 13.904-199.599 101.853-213.504 213.504-12.385 92.673-18.714 186.055-18.944 279.551 0.231 93.497 6.559 186.879 18.944 279.551 13.904 111.65 101.853 199.599 213.504 213.504 92.673 12.385 186.055 18.714 279.551 18.944zM701.695 638.206c-20.076 19.935-52.513 19.82-72.448-0.256v0l-117.247-117.759-117.247 117.759c-20.076 20.076-52.628 20.076-72.704 0s-20.076-52.628 0-72.704v0l117.759-117.247-117.759-117.247c-12.987-12.987-18.059-31.916-13.306-49.658s18.611-31.599 36.351-36.351c17.741-4.754 36.67 0.319 49.658 13.306v0l117.247 117.759 117.247-117.759c12.987-12.987 31.916-18.059 49.658-13.306s31.599 18.611 36.351 36.351c4.754 17.741-0.319 36.67-13.306 49.658v0 0l-117.759 117.247 117.759 117.759c19.935 20.076 19.82 52.513-0.256 72.448z" />
<glyph unicode="&#xe910;" glyph-name="share" d="M508.872 903.237c-34.894-3.465-61.924-32.667-61.925-68.182v0-155.863l-6.53-0.913c-249.934-34.299-440.408-246.44-440.417-503.071v-0.001l0.137-12.833c1.781-86.083 21.555-140.747 63.797-162.028 2.994-1.544 6.536-2.449 10.288-2.449 8.73 0 16.316 4.899 20.158 12.099l0.060 0.123c29.821 56.902 94.166 105.035 194.087 143.396l21.464 7.9c31.592 11.44 69.885 21.815 109.232 29.209l4.799 0.749 22.879 3.927 0.091-134.399c0.023-37.814 30.683-68.46 68.501-68.46 17.361 0 33.213 6.458 45.285 17.104l-0.074-0.064 440.052 387.077c14.282 12.616 23.243 30.973 23.243 51.422s-8.961 38.806-23.171 51.357l-0.074 0.064-440.052 387.077c-11.993 10.595-27.844 17.067-45.208 17.080h-0.003l-6.622-0.32z" />
<glyph unicode="&#xe911;" glyph-name="arrow-right-o" d="M427.97-18.213c-40.371 0.033-73.085 32.768-73.085 73.143 0 16.6 5.53 31.909 14.848 44.184l-0.132-0.181 262.817 349.067-262.817 349.067c-9.186 12.094-14.716 27.403-14.716 44.003 0 40.396 32.747 73.143 73.143 73.143 23.796 0 44.937-11.363 58.295-28.959l0.132-0.181 295.936-393.070c9.191-12.092 14.724-27.401 14.724-44.003s-5.533-31.91-14.856-44.184l0.132 0.181-295.936-393.040c-13.465-17.793-34.599-29.169-58.39-29.169-0.033 0-0.067 0-0.1 0h0.005z" />
<glyph unicode="&#xe912;" glyph-name="hot" d="M646.213 409.888c79.534 43.081 142.499 115.987 178.951 205.463 62.964-76.22 99.418-172.324 99.418-281.683 0-119.301-39.767-225.346-115.987-304.88-26.512-26.512-53.023-49.708-76.22-69.592-23.198-13.256-46.395-23.198-69.592-19.883-23.198 0-43.081 6.627-59.65 13.256-112.673 72.906-185.58 202.149-185.58 347.961v26.512c-53.023-46.395-82.848-112.673-82.848-188.893 0-82.848 39.767-155.754 99.418-202.149-185.58 16.569-334.706 178.951-334.706 377.787 0 56.337 19.883 152.44 79.534 231.974 66.279 86.162 172.324 119.301 261.799 268.427 23.198 36.453 33.139 86.162 39.767 145.812 56.337-29.825 99.418-66.279 129.243-109.359 23.198-29.825 43.081-69.592 56.337-112.673 3.314-3.314 6.627-9.942 6.627-13.256 9.942-33.139 16.569-59.65 16.569-135.87 3.314-66.279-13.256-125.929-43.081-178.951z" />
<glyph unicode="&#xe913;" glyph-name="hot-o" d="M439.294 874.256c109.103-77.076 166.754-255.814 125.721-416.817l-36.461-143.068 127.69 74.13c79.525 46.165 114.854 130.248 130.496 198.239 57.59-64.101 89.555-148.090 89.555-239.351 0-163.996-111.707-306.707-271.982-348.051-113.738 110.033-145.858 204.238-163.329 289.779l-33.33 163.112-81.494-145.16c-46.134-82.176-41.979-175.389-27.811-250.853-92.702 66.736-150.648 174.878-150.648 291.174 0 96.314 73.386 178.443 137.317 239.243 6.155 5.844 12.432 11.533 18.727 17.238 54.241 49.188 120.513 109.289 135.55 270.385zM405.376 959.998c-11.704 0.015-24.725-13.145-25.144-32.213-4.295-194.999-76.61-237.909-137.936-296.227-78.533-74.673-156.601-167.856-156.601-284.167 0-180.412 114.482-334.161 275.408-394.479 4.387-1.736 7.999-2.496 10.944-2.496 15.052 0 12.727 19.936 8.185 31.764-22.013 78.688-53.823 198.689 0 294.538 20.649-101.058 61.109-210.285 192.892-333.261 6.976-5.208 16.277-7.456 25.78-7.456 6.015 0 12.107 0.899 17.734 2.496 184.815 46.181 321.666 211.617 321.666 408.896 0 140.773-64.798 263.502-171.855 340.16-6.449 5.131-13.223 8.836-18.649 8.836-5.938 0-10.278-4.418-10.867-16.215-2.682-75.635-28.275-189.542-111.832-238.049 53.932 211.602-39.111 451.712-213.865 516.666-1.86 0.822-3.844 1.209-5.86 1.209v0zM473.243 710.757l-124.016-170.521c59.838 45.312 120.079 112.885 124.016 170.521v0z" />
<glyph unicode="&#xe914;" glyph-name="more" d="M1024 448c0 282.764-229.236 512-512 512s-512-229.236-512-512c0-282.764 229.236-512 512-512s512 229.236 512 512zM791.273 541.091c51.386 0 93.091-41.705 93.091-93.091s-41.705-93.091-93.091-93.091c-51.433 0-93.091 41.658-93.091 93.091s41.658 93.091 93.091 93.091zM232.727 354.909c-51.433 0-93.091 41.658-93.091 93.091s41.658 93.091 93.091 93.091c51.386 0 93.091-41.705 93.091-93.091s-41.705-93.091-93.091-93.091zM418.909 448c0 51.433 41.658 93.091 93.091 93.091 51.386 0 93.091-41.705 93.091-93.091s-41.705-93.091-93.091-93.091c-51.433 0-93.091 41.658-93.091 93.091z" />
<glyph unicode="&#xe915;" glyph-name="warn" horiz-adv-x="1109" d="M1092.173 148.496l-427.235 726.739c-22.022 44.045-66.067 66.067-110.112 66.067s-88.089-22.022-110.112-66.067l-427.235-726.739c-48.449-83.685 8.809-193.797 110.112-193.797h850.065c101.303 0 162.966 110.112 114.516 193.797zM590.062 166.113c-17.618-17.618-48.449-17.618-70.472 0-8.809 8.809-13.213 22.022-13.213 35.236s4.405 26.427 13.213 35.236c17.618 17.618 48.449 17.618 70.472 0 8.809-8.809 13.213-22.022 13.213-35.236s-4.405-26.427-13.213-35.236zM603.275 346.697c0-22.022-17.618-35.236-44.045-35.236h-8.809c-22.022 0-44.045 17.618-44.045 35.236v229.033c0 22.022 17.618 35.236 44.045 35.236h8.809c22.022 0 44.045-17.618 44.045-35.236v-229.033z" />
<glyph unicode="&#xe916;" glyph-name="tv" horiz-adv-x="1285" d="M639.58 126.749c12.383 0.409 24.532-1.986 33.819-6.717 1.404-0.705 2.768-1.485 4.089-2.336l186.91-121.609c12.208-7.944 15.187-19.158 7.593-28.796-7.535-9.579-24.182-15.771-42.522-15.771h-373.937c-18.341 0-34.988 6.191-42.522 15.771-7.593 9.638-4.614 20.852 7.593 28.796l186.91 121.609c8.177 5.315 19.743 8.586 32.125 8.995l-0.058 0.058zM1168.186 944.481c64.517 0 116.819-52.302 116.819-116.819v-642.504c0-64.517-52.302-116.819-116.819-116.819h-307.526l-151.106 98.303c-3.073 1.999-6.251 3.832-9.521 5.491-16.029 7.878-33.55 12.259-51.401 12.85l-10.923 0.058c-21.918-0.451-43.307-6.808-61.914-18.399l-151.047-98.303h-307.934c-64.517 0-116.819 52.302-116.819 116.819v642.504c0 64.517 52.302 116.819 116.819 116.819h1051.37zM590.269 677.988h-256.947c-17.801 0-32.153-14.352-32.153-32.153s14.352-32.153 32.153-32.153h96.32v-224.794c0-17.801 14.352-32.153 32.153-32.153s32.153 14.352 32.153 32.153v224.932h96.32c17.801 0 32.153 14.352 32.153 32.153 0 17.664-14.352 32.015-32.153 32.015zM951.802 677.988c-12.563 0-23.331-7.179-28.716-17.533l-99.813-199.764-99.813 199.488c-5.384 10.63-16.291 17.809-28.716 17.809-17.809 0-32.167-14.358-32.167-32.167 0-5.246 1.242-10.216 3.451-14.496l128.391-256.781c5.384-10.63 16.291-17.809 28.716-17.809 12.563 0 23.331 7.179 28.716 17.533l128.529 257.195c2.209 4.142 3.451 9.112 3.451 14.358 0 12.563-7.179 23.331-17.533 28.716h-0.138c-4.142 2.071-9.112 3.451-14.358 3.451z" />
<glyph unicode="&#xe917;" glyph-name="video-file" d="M938.667 734.72l-238.933 218.454c-6.827 0-6.827 0-13.653 6.826h-505.175c-47.786 0-109.226-40.96-109.226-95.573v-832.854c0-54.614 54.613-95.573 109.226-95.573h662.187c47.786 0 95.573 34.133 109.227 88.746v689.495c0 6.826-6.827 13.652-13.653 20.48zM713.387 850.773l116.053-109.227h-88.747c-13.652 0-27.306 13.653-27.306 27.307v81.921zM884.052 31.573c-6.826-13.653-20.48-27.307-40.96-27.307h-662.186c-20.48 0-40.96 13.653-40.96 27.307v832.854c0 13.653 20.481 27.306 40.96 27.306h464.215v-122.879c0-54.613 40.959-95.573 95.573-95.573h143.359v-641.707zM419.839 564.052c-27.307 13.653-54.614 0-54.614-34.133v-286.72c0-27.307 34.134-47.786 54.614-34.133l232.107 143.359c20.48 13.653 20.48 47.786 0 61.44l-232.107 150.187z" />
<glyph unicode="&#xe918;" glyph-name="qrcode" d="M713.143 265.143h146.286q18.286 0 18.286-18.286v-146.286q0-18.286-18.286-18.286h-146.286q-18.286 0-18.286 18.286v146.286q0 18.286 18.286 18.286zM566.857 411.429h109.714q18.286 0 18.286-18.286v-109.714q0-18.286-18.286-18.286h-109.714q-18.286 0-18.286 18.286v109.714q0 18.286 18.286 18.286zM896 82.286h109.714q18.286 0 18.286-18.286v-109.714q0-18.286-18.286-18.286h-109.714q-18.286 0-18.286 18.286v109.714q0 18.286 18.286 18.286zM932.571 411.429h73.143q18.286 0 18.286-18.286v-73.143q0-18.286-18.286-18.286h-73.143q-18.286 0-18.286 18.286v73.143q0 18.286 18.286 18.286zM566.857 45.714h73.143q18.286 0 18.286-18.286v-73.143q0-18.286-18.286-18.286h-73.143q-18.286 0-18.286 18.286v73.143q0 18.286 18.286 18.286zM950.857 960h-329.143c-40.395 0-73.143-32.747-73.143-73.143v0-329.143c0-40.395 32.747-73.143 73.143-73.143v0h329.143c40.395 0 73.143 32.747 73.143 73.143v0 329.143c0 40.395-32.747 73.143-73.143 73.143v0zM877.714 649.143c0-10.099-8.186-18.286-18.286-18.286v0h-146.286c-10.099 0-18.286 8.186-18.286 18.286v0 146.286c0 10.099 8.186 18.286 18.286 18.286v0h146.286c10.099 0 18.286-8.186 18.286-18.286v0zM402.286 960h-329.143c-40.395 0-73.143-32.747-73.143-73.143v0-329.143c0-40.395 32.747-73.143 73.143-73.143v0h329.143c40.395 0 73.143 32.747 73.143 73.143v0 329.143c0 40.395-32.747 73.143-73.143 73.143v0zM329.143 649.143c0-10.099-8.186-18.286-18.286-18.286v0h-146.286c-10.099 0-18.286 8.186-18.286 18.286v0 146.286c0 10.099 8.186 18.286 18.286 18.286v0h146.286c10.099 0 18.286-8.186 18.286-18.286v0zM402.286 411.429h-329.143c-40.395 0-73.143-32.747-73.143-73.143v0-329.143c0-40.395 32.747-73.143 73.143-73.143v0h329.143c40.395 0 73.143 32.747 73.143 73.143v0 329.143c0 40.395-32.747 73.143-73.143 73.143v0zM329.143 100.571c0-10.099-8.186-18.286-18.286-18.286v0h-146.286c-10.099 0-18.286 8.186-18.286 18.286v0 146.286c0 10.099 8.186 18.286 18.286 18.286v0h146.286c10.099 0 18.286-8.186 18.286-18.286v0z" />
<glyph unicode="&#xe919;" glyph-name="download" d="M475.2 155.52l-361.6 362.24c-19.84 19.84-19.84 52.48 0 72.32s52.48 19.84 72.32 0l274.56-274.56v593.28c0 28.16 23.040 51.2 51.2 51.2s51.2-23.040 51.2-51.2v-593.28l275.2 273.92c19.84 19.84 52.48 19.84 72.32 0s19.84-52.48 0-72.32l-362.24-362.24c-1.92-2.56-5.12-4.48-7.68-6.4l-3.84-1.92c-1.92-0.64-3.2-1.92-5.12-2.56s-3.2-0.64-5.12-1.28c-1.28-0.64-3.2-1.28-4.48-1.28-3.84-0.64-6.4-1.28-10.24-1.28s-7.040 0.64-10.24 1.28c-1.92 0-3.2 0.64-4.48 1.28-1.92 0.64-3.2 1.28-5.12 1.92s-3.2 1.92-5.12 2.56l-3.84 1.92c-2.56 1.92-5.12 3.84-7.68 6.4zM870.080 38.4c28.16 0 51.2-23.040 51.2-51.2s-23.040-51.2-51.2-51.2h-716.8c-28.16 0-51.2 23.040-51.2 51.2s23.040 51.2 51.2 51.2h716.8z" />
<glyph unicode="&#xe91a;" glyph-name="url" d="M447.909 172.398l-73.727-73.727c-26.504-27.682-63.758-44.887-105.029-44.887-0.275 0-0.55 0.001-0.825 0.002h0.042c-38.399 0-76.799 16.042-105.727 44.884-26.763 27.208-43.285 64.559-43.285 105.769s16.523 78.561 43.306 105.79l-0.020-0.021 176.296 176.296c26.504 27.682 63.758 44.887 105.029 44.887 0.275 0 0.55-0.001 0.825-0.002h-0.042c38.399 0 76.799-16.042 105.727-44.884 22.443-22.443 60.842-22.443 86.526 0 22.443 22.443 22.443 60.842 0 86.526-48.716 49.010-116.174 79.345-190.717 79.345s-142.001-30.334-190.704-79.331l-176.224-176.309c-49.010-48.716-79.345-116.174-79.345-190.717s30.334-142.001 79.331-190.704l0.013-0.013c48.711-48.985 116.153-79.302 190.674-79.302s141.963 30.317 190.662 79.289l73.739 73.739c22.443 22.443 22.443 60.927 0 86.612-25.6 19.2-64.085 19.2-86.526-3.243zM944.627 880.655c-48.716 49.010-116.174 79.345-190.717 79.345s-142.001-30.334-190.704-79.331l-73.655-73.655c-22.443-22.443-22.443-60.927 0-86.526 22.443-22.443 60.927-22.443 86.526 0l73.727 73.642c26.504 27.682 63.758 44.887 105.029 44.887 0.275 0 0.55-0.001 0.825-0.002h-0.042c38.399 0 76.799-16.042 105.727-44.884 26.738-27.204 43.243-64.537 43.243-105.727s-16.506-78.523-43.264-105.748l-176.275-176.275c-26.504-27.682-63.758-44.887-105.029-44.887-0.275 0-0.55 0.001-0.825 0.002h0.042c-38.399 0-76.799 16.042-105.727 44.884-22.443 22.443-60.842 22.443-86.526 0-10.665-10.721-17.258-25.502-17.258-41.823 0-14.68 5.334-28.115 14.169-38.471l-0.069 0.083 3.157-3.157c48.716-49.010 116.174-79.345 190.717-79.345s142.001 30.334 190.704 79.331l176.224 176.309c105.812 105.812 105.812 278.865 0 381.434z" />
<glyph unicode="&#xe91b;" glyph-name="download-bold" d="M976.372 58.79c26.196 0 47.628-25.786 47.628-57.302s-21.432-57.302-47.628-57.302v0h-928.744c-26.196 0-47.628 25.786-47.628 57.302s21.432 57.302 47.628 57.302v0zM652.182 951.814c42.344 0 77.070-34.944 77.070-77.288v0-186.183h142.17c31.099 0 59.030-19.080 70.904-47.785s5.199-62.102-16.807-84.011v0l-340.541-338.896c-39.784-39.633-104.127-39.633-143.912 0v0l-340.59 339.115c-22.013 21.983-28.635 55.054-16.782 83.818 11.85 28.681 39.829 47.785 70.879 47.785v0h141.663v186.158c0 42.368 35.21 77.288 77.578 77.288v0z" />
<glyph unicode="&#xe91c;" glyph-name="screen-o" horiz-adv-x="1117" d="M525.592 182.386c8.422 8.419 20.056 13.627 32.906 13.627s24.483-5.208 32.906-13.627l166.899-166.899c8.419-8.422 13.627-20.056 13.627-32.906 0-25.701-20.832-46.536-46.531-46.541h-333.798c-25.7 0.006-46.532 20.842-46.532 46.541 0 12.85 5.208 24.483 13.627 32.906v0zM977.374 959.959c73.303 0 135.064-52.917 139.393-122.079l0.233-7.726v-624.683c0-70.278-59.108-125.708-131.526-129.572l-8.098-0.233h-139.625c-25.682 0.029-46.49 20.856-46.49 46.541 0 23.767 17.815 43.373 40.819 46.193l0.225 0.022 5.446 0.326h139.625c24.714 0 43.469 15.080 46.216 32.394l0.326 4.329v624.683c0 17.593-16.848 33.976-40.491 36.397l-6.051 0.326h-837.75c-24.714 0-43.469-15.080-46.216-32.394l-0.326-4.329v-624.683c0-17.593 16.848-33.976 40.491-36.397l6.051-0.326h139.625c25.682-0.029 46.49-20.856 46.49-46.541 0-23.767-17.815-43.373-40.819-46.193l-0.225-0.022-5.446-0.326h-139.625c-73.303 0-135.064 52.917-139.393 122.079l-0.233 7.726v624.683c0 70.231 59.108 125.708 131.526 129.572l8.098 0.233h837.75z" />
<glyph unicode="&#xe91d;" glyph-name="home" d="M1017.175 501.032c-2.337 7.799-6.465 14.463-11.922 19.768l-0.010 0.010-398.652 392.614c-23.53 23.104-55.811 37.366-91.423 37.366-35.276 0-67.282-13.993-90.772-36.732l-404.525-392.776c-4.51-4.343-8.132-9.574-10.588-15.414l-0.114-0.304c-5.771-10.411-9.169-22.829-9.169-36.042 0-0.016 0-0.031 0-0.047v0.003c0-42.085 34.436-76.207 76.914-76.207h17.879v-355.467c0-51.084 41.837-92.593 93.445-92.593h653.745c51.608 0 93.458 41.457 93.458 92.593v355.493h11.645c42.478 0 76.914 34.122 76.914 76.207 0 0.059 0 0.128 0 0.198 0 11.36-2.515 22.134-7.018 31.794l0.194-0.464zM643.737 168.947h-257.241c-36.676 0-66.383 29.445-66.383 65.767s29.72 65.781 66.383 65.781h257.241c36.676 0 66.383-29.445 66.383-65.781s-29.72-65.767-66.383-65.767z" />
</font>
</defs>
</svg>
