<?xml version="1.0" encoding="UTF-8"?>
<svg width="227px" height="199px" viewBox="0 0 227 199" version="1.1" xmlns="http://www.w3.org/2000/svg" xmlns:xlink="http://www.w3.org/1999/xlink">
    <!-- Generator: Sketch 57 (83077) - https://sketch.com -->
    <title>backhome</title>
    <desc>Created with Sketch.</desc>
    <g id="页面-1" stroke="none" stroke-width="1" fill="none" fill-rule="evenodd">
        <g id="backhome" transform="translate(-7.000000, -22.000000)">
            <rect id="矩形" fill-opacity="0" fill="#D8D8D8" fill-rule="nonzero" x="0" y="0" width="244" height="244"></rect>
            <g id="编组-23" transform="translate(10.000000, 22.000000)">
                <g id="编组-29">
                    <g id="编组" transform="translate(0.000000, 23.919999)">
                        <path d="M184.198004,76.5077815 L184.198004,144.230132 C184.198004,149.077296 180.266346,153.008955 175.419181,153.008955 L53.7697739,153.008955 C48.9226093,153.008955 44.9909507,149.077296 44.9909507,144.230132 L44.9909507,76.5077815 C44.9909507,71.6606169 48.9226093,67.7289582 53.7697739,67.7289582 L175.419181,67.7289582 C180.266346,67.7289582 184.198004,71.6606169 184.198004,76.5077815" id="Fill-1" fill-opacity="0.18" fill="#B9C0C8" fill-rule="nonzero"></path>
                        <path d="M194.594396,52.5498562 L194.594396,130.387615 C194.594396,135.95878 190.075481,140.477694 184.504316,140.477694 L44.684639,140.477694 C39.1134736,140.477694 34.5945592,135.95878 34.5945592,130.387615 L34.5945592,52.5498562 C34.5945592,46.9786907 39.1134736,42.4597764 44.684639,42.4597764 L184.504316,42.4597764 C190.075481,42.4597764 194.594396,46.9786907 194.594396,52.5498562" id="Fill-1" fill="#E8EEF6" fill-rule="nonzero"></path>
                        <polygon id="Fill-3" fill="#D6DFE9" fill-rule="nonzero" points="34.5945592 68.936362 61.4514687 95.7932715 34.5945592 122.64946"></polygon>
                        <path d="M123.156559,42.4597764 L73.5133663,92.102969 L34.5944872,53.1840898 L34.5944872,52.5498562 C34.5944872,46.9786907 39.1134015,42.4597764 44.684567,42.4597764 L123.156559,42.4597764 Z" id="Fill-5" fill="#D6DFE9" fill-rule="nonzero"></path>
                        <path d="M102.342238,139.036254 C102.342238,139.519137 102.327823,140.002019 102.291787,140.477694 L57.7080491,140.477694 C57.6720131,140.002019 57.6575987,139.519137 57.6575987,139.036254 C57.6575987,126.697528 67.6611921,116.693935 79.9999183,116.693935 C92.3386444,116.693935 102.342238,126.697528 102.342238,139.036254" id="Fill-7" fill="#D6DFE9" fill-rule="nonzero"></path>
                        <path d="M194.594396,99.3966552 L194.594396,130.387615 C194.594396,135.95878 190.075481,140.477694 184.504316,140.477694 L152.799844,140.477694 C153.181825,117.724564 171.747572,99.3966552 194.594396,99.3966552" id="Fill-9" fill="#FFFFFF" fill-rule="nonzero"></path>
                        <path d="M134.053917,100.838095 C134.053917,102.430166 129.213562,103.720975 123.243117,103.720975 C117.272673,103.720975 112.432318,102.430166 112.432318,100.838095 C112.432318,99.2460247 117.272673,97.9552152 123.243117,97.9552152 C129.213562,97.9552152 134.053917,99.2460247 134.053917,100.838095" id="Fill-11" fill="#D7DDE4" fill-rule="nonzero"></path>
                        <path d="M194.594396,109.486735 L194.594396,130.387615 C194.594396,135.95878 190.075481,140.477694 184.504316,140.477694 L162.889924,140.477694 C163.271905,123.29573 177.318738,109.486735 194.594396,109.486735" id="Fill-13" fill="#D6DFE9" fill-rule="nonzero"></path>
                        <path d="M152.702547,74.2601043 L125.219332,100.137555 C124.109423,101.182599 122.376812,101.182599 121.266903,100.137555 L93.783688,74.2601043 C76.1368591,57.6424636 75.7166794,29.7268165 92.8568421,12.5873745 L92.8568421,12.5866538 C109.638807,-4.19459031 136.847428,-4.19459031 153.629393,12.5866538 L153.629393,12.5873745 C170.769555,29.7268165 170.349376,57.6424636 152.702547,74.2601043" id="Fill-15" fill="#1A66FF" fill-rule="nonzero"></path>
                        <path d="M144.143997,42.4597764 C144.143997,54.0035484 134.786889,63.360656 123.243117,63.360656 C111.699345,63.360656 102.342238,54.0035484 102.342238,42.4597764 C102.342238,30.9160044 111.699345,21.5588969 123.243117,21.5588969 C134.786889,21.5588969 144.143997,30.9160044 144.143997,42.4597764" id="Fill-17" fill="#FFFFFF" fill-rule="nonzero"></path>
                        <path d="M67.0269585,64.081376 C67.0269585,65.6734464 65.7361491,66.9642559 64.1440786,66.9642559 C62.5520082,66.9642559 61.2611987,65.6734464 61.2611987,64.081376 C61.2611987,62.4893055 62.5520082,61.198496 64.1440786,61.198496 C65.7361491,61.198496 67.0269585,62.4893055 67.0269585,64.081376" id="Fill-19" fill="#34C8CD" fill-rule="nonzero"></path>
                        <path d="M65.5855186,64.081376 C65.5855186,64.8770508 64.9397535,65.5228159 64.1440786,65.5228159 C63.3484037,65.5228159 62.7026386,64.8770508 62.7026386,64.081376 C62.7026386,63.2857011 63.3484037,62.639936 64.1440786,62.639936 C64.9397535,62.639936 65.5855186,63.2857011 65.5855186,64.081376" id="Fill-21" fill="#D6DFE9" fill-rule="nonzero"></path>
                        <path d="M53.3332788,127.504735 L4.32431991,127.504735 C1.9365746,127.504735 0,125.56816 0,123.180415 L0,97.2344952 C0,94.8467499 1.9365746,92.9101753 4.32431991,92.9101753 L53.3332788,92.9101753 C55.7210242,92.9101753 57.6575987,94.8467499 57.6575987,97.2344952 L57.6575987,123.180415 C57.6575987,125.56816 55.7210242,127.504735 53.3332788,127.504735" id="Fill-23" fill="#34C8CD" fill-rule="nonzero"></path>
                        <path d="M49.1399982,133.119995 L4.93999982,133.119995 C2.7865499,133.119995 1.03999996,131.373445 1.03999996,129.219995 L1.03999996,105.819996 C1.03999996,103.666546 2.7865499,101.919996 4.93999982,101.919996 L49.1399982,101.919996 C51.2934481,101.919996 53.04,103.666546 53.04,105.819996 L53.04,129.219995 C53.04,131.373445 51.2934481,133.119995 49.1399982,133.119995" id="Fill-23" fill-opacity="0.2" fill="#34C8CD" fill-rule="nonzero"></path>
                        <path d="M59.0990387,64.081376 L27.3873594,64.081376 C26.5916845,64.081376 25.9459194,64.7271411 25.9459194,65.5228159 L25.9459194,89.3065754" id="Stroke-25" stroke="#CDD9E6" stroke-linecap="round"></path>
                        <path d="M27.3873594,89.3065754 C27.3873594,90.1022503 26.7415943,90.7480154 25.9459194,90.7480154 C25.1502446,90.7480154 24.5044795,90.1022503 24.5044795,89.3065754 C24.5044795,88.5109006 25.1502446,87.8651355 25.9459194,87.8651355 C26.7415943,87.8651355 27.3873594,88.5109006 27.3873594,89.3065754" id="Fill-27" fill="#34C8CD" fill-rule="nonzero"></path>
                        <path d="M48.288239,103.000255 L9.3693598,103.000255 C8.97080165,103.000255 8.64863981,102.678093 8.64863981,102.279535 C8.64863981,101.880977 8.97080165,101.558815 9.3693598,101.558815 L48.288239,101.558815 C48.6867971,101.558815 49.0089589,101.880977 49.0089589,102.279535 C49.0089589,102.678093 48.6867971,103.000255 48.288239,103.000255" id="Fill-29" fill="#FFFFFF" fill-rule="nonzero"></path>
                        <path d="M48.288239,110.928175 L9.3693598,110.928175 C8.97080165,110.928175 8.64863981,110.606013 8.64863981,110.207455 C8.64863981,109.808897 8.97080165,109.486735 9.3693598,109.486735 L48.288239,109.486735 C48.6867971,109.486735 49.0089589,109.808897 49.0089589,110.207455 C49.0089589,110.606013 48.6867971,110.928175 48.288239,110.928175" id="Fill-31" fill="#FFFFFF" fill-rule="nonzero"></path>
                        <path d="M30.2702393,118.856095 L9.3693598,118.856095 C8.97080165,118.856095 8.64863981,118.533933 8.64863981,118.135375 C8.64863981,117.736817 8.97080165,117.414655 9.3693598,117.414655 L30.2702393,117.414655 C30.6687975,117.414655 30.9909593,117.736817 30.9909593,118.135375 C30.9909593,118.533933 30.6687975,118.856095 30.2702393,118.856095" id="Fill-33" fill="#FFFFFF" fill-rule="nonzero"></path>
                        <g id="Fill-35" transform="translate(181.621436, 46.784096)" fill="#C6ECEF" fill-rule="nonzero">
                            <path d="M30.1182395,0 L1.59358396,0 C0.713584857,0 7.20719985e-05,0.713512785 7.20719985e-05,1.59351189 L7.20719985e-05,17.1452077 C7.20719985e-05,18.0252068 0.713584857,18.7387196 1.59358396,18.7387196 L30.1182395,18.7387196 C30.9982386,18.7387196 31.7117514,18.0252068 31.7117514,17.1452077 L31.7117514,1.59351189 C31.7117514,0.713512785 30.9982386,0 30.1182395,0" id="路径" style="mix-blend-mode: multiply;"></path>
                        </g>
                        <path d="M181.621436,147.976915 C181.621436,157.33114 174.038741,164.913834 164.684516,164.913834 C155.330292,164.913834 147.747597,157.33114 147.747597,147.976915 C147.747597,138.62269 155.330292,131.039995 164.684516,131.039995 C174.038741,131.039995 181.621436,138.62269 181.621436,147.976915" id="Fill-37" fill-opacity="0.3" fill="#80B1FF" fill-rule="nonzero"></path>
                        <path d="M181.621436,140.838054 C181.621436,150.192279 174.038741,157.774974 164.684516,157.774974 C155.330292,157.774974 147.747597,150.192279 147.747597,140.838054 C147.747597,131.48383 155.330292,123.901135 164.684516,123.901135 C174.038741,123.901135 181.621436,131.48383 181.621436,140.838054" id="Fill-37" fill="#80B1FF" fill-rule="nonzero"></path>
                        <path d="M183.062876,140.838054 C183.062876,150.987954 174.834416,159.216414 164.684516,159.216414 C154.534617,159.216414 146.306157,150.987954 146.306157,140.838054 C146.306157,130.688155 154.534617,122.459695 164.684516,122.459695 C174.834416,122.459695 183.062876,130.688155 183.062876,140.838054 Z" id="Stroke-39" stroke="#80B1FF" stroke-width="0.720719984" opacity="0.5"></path>
                        <g id="play" transform="translate(161.000000, 135.080001)" fill="#FFFFFF" fill-rule="nonzero">
                            <path d="M9.15870953,4.41176407 L2.5001125,0.245606884 C1.38673113,-0.455619836 0,0.429052237 0,1.83150568 L0,10.1672654 C0,11.5731407 1.38670835,12.4526565 2.5001125,11.756586 L9.15870953,7.59045228 C10.2804302,6.88753806 10.2804302,5.11301423 9.15870953,4.41010001 L9.15870953,4.41176407 Z" id="路径"></path>
                        </g>
                        <path d="M184.864676,140.838054 C184.864676,151.983268 175.82973,161.018214 164.684516,161.018214 C153.539303,161.018214 144.504357,151.983268 144.504357,140.838054 C144.504357,129.69284 153.539303,120.657895 164.684516,120.657895 C175.82973,120.657895 184.864676,129.69284 184.864676,140.838054 Z" id="Stroke-41" stroke="#80B1FF" stroke-width="0.720719984" opacity="0.200000003"></path>
                        <path d="M124.324197,149.847054 L37.1170792,149.847054 C35.9228462,149.847054 34.9549192,148.879127 34.9549192,147.684894 C34.9549192,146.490661 35.9228462,145.522734 37.1170792,145.522734 L124.324197,145.522734 C125.51843,145.522734 126.486357,146.490661 126.486357,147.684894 C126.486357,148.879127 125.51843,149.847054 124.324197,149.847054" id="Fill-47" fill="#E8EEF6" fill-rule="nonzero"></path>
                        <path d="M95.4953979,159.937134 L37.1170792,159.937134 C35.9228462,159.937134 34.9549192,158.969207 34.9549192,157.774974 C34.9549192,156.580741 35.9228462,155.612814 37.1170792,155.612814 L95.4953979,155.612814 C96.6896309,155.612814 97.6575579,156.580741 97.6575579,157.774974 C97.6575579,158.969207 96.6896309,159.937134 95.4953979,159.937134" id="Fill-49" fill="#E8EEF6" fill-rule="nonzero"></path>
                    </g>
                    <path d="M191.93097,4.41766155 L199.75281,17.3947811 C199.24321,17.8981411 199.02377,18.654221 199.24945,19.383261 L185.22921,29.7562206 L191.93097,4.41766155 Z M203.09017,19.134701 C203.14425,18.826861 203.13489,18.503421 203.03193,18.186221 C202.75633,17.3427811 201.96801,16.8186211 201.12457,16.8269411 L195.94017,8.22614141 L208.63233,22.7112609 L203.09017,19.134701 Z M200.17817,20.522061 C200.64305,20.781021 201.20985,20.8590209 201.75689,20.682221 C202.09489,20.571981 202.37673,20.375421 202.60033,20.131021 L210.06337,24.9410208 C210.06025,24.9711808 210.04985,24.9982208 210.04777,25.0273408 L186.87449,30.3646206 L200.17817,20.522061 Z M213.914489,24.5811808 C213.575449,23.5411808 212.455369,22.9712609 211.412249,23.3103009 C211.199049,23.3789409 211.01289,23.4871009 210.84233,23.6139808 L193.09369,3.35686159 C193.59081,2.84726161 193.80193,2.09222164 193.56585,1.36942166 C193.22681,0.328381701 192.10777,-0.240498278 191.06465,0.0975017095 C190.02153,0.435501697 189.45161,1.55350166 189.78961,2.59350162 C189.93833,3.0490216 190.24097,3.40678159 190.61641,3.64494158 L183.778411,29.4972606 C183.643211,29.5118206 183.506971,29.5388606 183.372811,29.5825406 C182.329691,29.9205406 181.758731,31.0385406 182.097771,32.0785405 C182.436811,33.1185405 183.555851,33.6884605 184.59793,33.3504605 C185.36753,33.1008605 185.87817,32.4259005 185.95721,31.6708606 L210.25681,26.0746208 C210.68737,26.9378207 211.693049,27.3839807 212.639449,27.0771807 C213.681529,26.7391807 214.252489,25.6222208 213.914489,24.5811808 L213.914489,24.5811808 Z" id="Fill-1" fill="#1A66FF" fill-rule="nonzero"></path>
                </g>
                <path d="M190.69525,194.600745 L186.70125,198.594745 C186.31025,198.985745 185.67725,198.985745 185.28725,198.594745 L181.29325,194.600745 C180.90225,194.209745 180.90225,193.577745 181.29325,193.186745 L185.28725,189.192745 C185.67725,188.801745 186.31025,188.801745 186.70125,189.192745 L190.69525,193.186745 C191.08625,193.577745 191.08625,194.209745 190.69525,194.600745" id="Fill-9" fill="#BBD9FA" fill-rule="nonzero"></path>
                <rect id="矩形" fill="#C4D8FC" fill-rule="nonzero" transform="translate(214.000000, 157.899495) rotate(-45.000000) translate(-214.000000, -157.899495) " x="207" y="150.899495" width="14" height="14" rx="2"></rect>
                <rect id="矩形" fill="#33C8CD" fill-rule="nonzero" opacity="0.251697359" transform="translate(28.000000, 51.798990) rotate(-45.000000) translate(-28.000000, -51.798990) " x="13.9999999" y="37.7989899" width="28" height="28" rx="2"></rect>
            </g>
            <g id="电影,胶片,影片" transform="translate(7.000000, 110.000000)" fill="#FFBBD8" fill-rule="nonzero">
                <path d="M15.75,0 L2.25,0 C1.00722656,0 0,1.03305288 0,2.30769231 L0,12.6923077 C0,13.9669471 1.00722656,15 2.25,15 L15.75,15 C16.9927734,15 18,13.9669471 18,12.6923077 L18,2.30769231 C18,1.03305288 16.9927734,0 15.75,0 Z M3.65625,12.4038462 C3.65625,12.5625 3.5296875,12.6923077 3.375,12.6923077 L2.25,12.6923077 C2.0953125,12.6923077 1.96875,12.5625 1.96875,12.4038462 L1.96875,11.25 C1.96875,11.0913462 2.0953125,10.9615385 2.25,10.9615385 L3.375,10.9615385 C3.5296875,10.9615385 3.65625,11.0913462 3.65625,11.25 L3.65625,12.4038462 Z M3.65625,9.51923077 C3.65625,9.67788462 3.5296875,9.80769231 3.375,9.80769231 L2.25,9.80769231 C2.0953125,9.80769231 1.96875,9.67788462 1.96875,9.51923077 L1.96875,8.36538462 C1.96875,8.20673077 2.0953125,8.07692308 2.25,8.07692308 L3.375,8.07692308 C3.5296875,8.07692308 3.65625,8.20673077 3.65625,8.36538462 L3.65625,9.51923077 Z M3.65625,6.63461538 C3.65625,6.79326923 3.5296875,6.92307692 3.375,6.92307692 L2.25,6.92307692 C2.0953125,6.92307692 1.96875,6.79326923 1.96875,6.63461538 L1.96875,5.48076923 C1.96875,5.32211538 2.0953125,5.19230769 2.25,5.19230769 L3.375,5.19230769 C3.5296875,5.19230769 3.65625,5.32211538 3.65625,5.48076923 L3.65625,6.63461538 Z M3.65625,3.75 C3.65625,3.90865385 3.5296875,4.03846154 3.375,4.03846154 L2.25,4.03846154 C2.0953125,4.03846154 1.96875,3.90865385 1.96875,3.75 L1.96875,2.59615385 C1.96875,2.4375 2.0953125,2.30769231 2.25,2.30769231 L3.375,2.30769231 C3.5296875,2.30769231 3.65625,2.4375 3.65625,2.59615385 L3.65625,3.75 Z M16.03125,12.4038462 C16.03125,12.5625 15.9046875,12.6923077 15.75,12.6923077 L14.625,12.6923077 C14.4703125,12.6923077 14.34375,12.5625 14.34375,12.4038462 L14.34375,11.25 C14.34375,11.0913462 14.4703125,10.9615385 14.625,10.9615385 L15.75,10.9615385 C15.9046875,10.9615385 16.03125,11.0913462 16.03125,11.25 L16.03125,12.4038462 Z M16.03125,9.51923077 C16.03125,9.67788462 15.9046875,9.80769231 15.75,9.80769231 L14.625,9.80769231 C14.4703125,9.80769231 14.34375,9.67788462 14.34375,9.51923077 L14.34375,8.36538462 C14.34375,8.20673077 14.4703125,8.07692308 14.625,8.07692308 L15.75,8.07692308 C15.9046875,8.07692308 16.03125,8.20673077 16.03125,8.36538462 L16.03125,9.51923077 Z M16.03125,6.63461538 C16.03125,6.79326923 15.9046875,6.92307692 15.75,6.92307692 L14.625,6.92307692 C14.4703125,6.92307692 14.34375,6.79326923 14.34375,6.63461538 L14.34375,5.48076923 C14.34375,5.32211538 14.4703125,5.19230769 14.625,5.19230769 L15.75,5.19230769 C15.9046875,5.19230769 16.03125,5.32211538 16.03125,5.48076923 L16.03125,6.63461538 Z M16.03125,3.75 C16.03125,3.90865385 15.9046875,4.03846154 15.75,4.03846154 L14.625,4.03846154 C14.4703125,4.03846154 14.34375,3.90865385 14.34375,3.75 L14.34375,2.59615385 C14.34375,2.4375 14.4703125,2.30769231 14.625,2.30769231 L15.75,2.30769231 C15.9046875,2.30769231 16.03125,2.4375 16.03125,2.59615385 L16.03125,3.75 Z" id="形状"></path>
            </g>
        </g>
    </g>
</svg>