<?xml version="1.0" standalone="no"?><!DOCTYPE svg PUBLIC "-//W3C//DTD SVG 1.1//EN" "http://www.w3.org/Graphics/SVG/1.1/DTD/svg11.dtd"><svg t="1611813933176" class="icon" viewBox="0 0 1024 1024" version="1.1" xmlns="http://www.w3.org/2000/svg" p-id="50937" xmlns:xlink="http://www.w3.org/1999/xlink" width="512" height="512"><defs><style type="text/css"></style></defs><path d="M950.018 744.033c-28.004-9.65-56.956-14.592-86.545-15.521-30.165-0.947-30.165-0.787-30.174-31.95 0-156.34 0.115-312.688-0.08-469.034-0.053-41.343-22.639-66.441-60.675-66.503a182952.66 182952.66 0 0 0-564.214 0c-34.556 0.053-57.957 23.748-59.355 58.078-0.306 7.544-0.142 15.107-0.142 22.659-0.009 157.856-0.274 315.716 0.381 473.567 0.07 17.468-3.869 23.657-22.285 22.745-19.434-0.956-39.165 1.744-58.609 4.126-8.655 1.054-24.403-1.921-23.02 10.155 1.047 9.137 15.76 2.683 23.863 1.611 96.678-12.82 186.491 2.975 265.785 62.861 7.729 5.844 13.245 7.508 21.824 1.665 20.833-14.202 42.817-11.599 64.717-2.036 6.68 2.912 12.227 7.693 20.97 3.869 67.75-29.616 135.667-22.02 203.123 1.062 12.077 4.126 19.213 0.788 27.89-7.198 80.224-73.831 172.949-89.803 275.608-58.283 6.145 1.885 12.13 7.136 19.921 0.752-3.772-10.129-12.264-10.305-18.983-12.625z m-148.929-9.58c-49.307 8.906-92.486 31.979-129.486 65.65-10.314 9.385-18.814 10.899-32.147 6.525-64.704-21.205-129.947-26.366-194.756-0.222-8.252 3.329-14.254 1.399-21.267-1.655-22.48-9.783-45.305-12.298-67.435 0.346-8.256 4.719-13.29 2.23-19.943-2.656-47.235-34.672-100.264-54.858-158.438-61.136-13.466-1.452-17.362-7.773-17.335-20.7 0.319-165.323-0.009-330.647 0.416-495.965 0.089-35.003 18.389-52.082 54.088-52.192 92.097-0.277 184.193-0.091 276.29-0.091 89.84 0 179.67-0.053 269.5 0.022 44.649 0.036 60.152 15.363 60.17 59.705 0.07 159.281-0.186 318.567 0.372 477.843 0.051 15.619-3.429 21.534-20.029 24.526zM803.7 802.069c-27.792 4.329-56.682 8.978-75.31 31.723-11.669 14.228-21.798 21.471-38.195 14.299-14.83 0.832-28.287 2.179-40.151 9.854-4.224 2.735-11.227 5.126-8.394 11.342 3.373 7.419 8.694 1.39 13.165-0.381 6.277-2.488 12.573-4.94 18.947-7.137 16.132-5.551 33.202 8.526 45.845 2.967 12.439-5.472 15.104-26.172 30.378-34.096 17.052-8.854 34.998-13.556 53.697-16.301 4.604-0.682 10.359-1.23 10.342-6.533-0.018-5.436-5.604-6.481-10.324-5.737z" p-id="50938"></path><path d="M229.743 798.838c-39.227-18.461-80.512-24.879-123.337-18.841-10.997 1.549-23.994 0.513-35.459 14.476 7.101 0.956 10.164 2.178 12.829 1.594 49.457-10.775 97.356-6.826 143.546 14.493 3.962 1.833 9.173 4.923 11.386-1.204 2.594-7.18-4.578-8.456-8.965-10.518zM567.138 604.553c-23.365-16.176-48.793-26.366-78.108-26.401-28.881-0.62-53.715 10.545-75.699 29.014-3.232 2.718-7.845 6.153-3.09 10.854 3.25 3.214 7.065 0.797 10.022-1.594 46.721-37.699 93.805-33.299 141.235-1.408 4.091 2.754 9.491 8.208 13.236 1.532 3.187-5.685-3.382-9.075-7.596-11.997zM568.306 475.512c-13.794-0.602-23.037 8.307-23.205 22.006-0.16 13.529 7.959 22.006 24.994 22.732 11.031-1.886 19.602-8.389 19.318-23.14-0.266-13.725-8.906-21.062-21.107-21.598zM436.602 499.12c0.89-14.048-7.663-21.691-21.121-24.157-13.458 1.815-23.122 8.347-23.029 22.599 0.093 13.71 7.906 22.386 22.414 22.369 13.422-0.027 20.939-8.26 21.736-20.811zM740.636 214.782c-13.033-0.12-21.604 8.402-21.409 21.282 0.187 12.822 7.907 20.707 22.037 19.671 12.741-0.93 18.549-8.229 19.045-20.472-0.921-12.393-7.615-20.37-19.673-20.481zM681.988 214.915c-12.502-0.629-22.479 6.636-22.471 20.065 0 12.543 6.888 21.273 21.24 20.791 12.643-0.42 19.009-7.291 20.443-19.312-0.956-12.323-7.454-20.946-19.212-21.544zM625.094 215.229c-11.723-0.036-20.115 7.349-20.655 19.626-0.531 12.171 6.153 19.839 18.796 20.831 13.6 1.062 21.028-5.883 23.392-18.954-1.134-13.339-8.633-21.459-21.533-21.503zM293.131 367.567c-7.942-0.168-9.527 8.639-10.589 14.943-1.173 6.957 3.312 11.822 10.253 11.791 6.702-0.026 10.771-4.458 11.191-11.702-2.001-6.234-3.156-14.877-10.855-15.032zM317.678 398.05c-5.892 3.382-9.283 9.013-9.991 15.727-0.744 7.043 3.608 11.601 10.456 11.384 6.317-0.199 11.855-3.8 10.771-11.207-0.943-6.399-3.086-12.915-11.236-15.904z" p-id="50939"></path></svg>